<svg xmlns="http://www.w3.org/2000/svg" viewBox="0 0 800 800"><rect width="800" height="800" rx="48" fill="#e3f4f1"/><circle cx="140" cy="150" r="9" fill="#ffffff" opacity="0.5"/><circle cx="660" cy="640" r="9" fill="#ffffff" opacity="0.5"/><path d="M655 140 L659.2 150.8 L670 155 L659.2 159.2 L655 170 L650.8 159.2 L640 155 L650.8 150.8 Z" fill="#129488" opacity="0.3"/><path d="M145 608 L148.36 616.64 L157 620 L148.36 623.36 L145 632 L141.64 623.36 L133 620 L141.64 616.64 Z" fill="#129488" opacity="0.3"/><ellipse cx="400" cy="628" rx="205" ry="30" fill="#26343a" opacity="0.08"/><defs><radialGradient id="gcm" cx="0.42" cy="0.34" r="0.85"><stop offset="0%" stop-color="#fff8f0"/><stop offset="100%" stop-color="#f0cda2"/></radialGradient></defs><path d="M200.5 524.8625 Q 200.5 313.25 400 313.25 Q 599.5 313.25 599.5 524.8625 Q 599.5 592.265 400 592.265 Q 200.5 592.265 200.5 524.8625 Z" fill="url(#gcm)"/><path d="M331.6 347.45 Q 350.6 298.05 369.6 347.45" stroke="#f0cda2" stroke-width="9.5" stroke-linecap="round" fill="none" transform="rotate(-30 350.6 322.75)"/><path d="M381.0 336.05 Q 400.0 286.65000000000003 419.0 336.05" stroke="#f0cda2" stroke-width="9.5" stroke-linecap="round" fill="none" transform="rotate(0 400.0 311.35)"/><path d="M430.4 347.45 Q 449.4 298.05 468.4 347.45" stroke="#f0cda2" stroke-width="9.5" stroke-linecap="round" fill="none" transform="rotate(30 449.4 322.75)"/><ellipse cx="309.75" cy="388.49" rx="38.0" ry="20.9" fill="#ffffff" opacity="0.5" transform="rotate(-28 309.75 388.49)"/><path d="M308.8 479.5 Q 341.1 451.0 373.40000000000003 479.5" stroke="#3a4a50" stroke-width="10.45" stroke-linecap="round" fill="none"/><path d="M426.59999999999997 479.5 Q 458.9 451.0 491.2 479.5" stroke="#3a4a50" stroke-width="10.45" stroke-linecap="round" fill="none"/><path d="M381.0 511.8 Q 400 528.9 419.0 511.8" stroke="#3a4a50" stroke-width="10.45" stroke-linecap="round" fill="none"/><ellipse cx="297.4" cy="504.2" rx="24.7" ry="15.2" fill="#f6b092" opacity="0.7"/><ellipse cx="502.6" cy="504.2" rx="24.7" ry="15.2" fill="#f6b092" opacity="0.7"/></svg>