<svg xmlns="http://www.w3.org/2000/svg" viewBox="0 0 800 800"><rect width="800" height="800" rx="48" fill="#e7f2fb"/><circle cx="140" cy="155" r="9" fill="#ffffff" opacity="0.5"/><circle cx="660" cy="640" r="9" fill="#ffffff" opacity="0.5"/><path d="M655 135 L659.2 145.8 L670 150 L659.2 154.2 L655 165 L650.8 154.2 L640 150 L650.8 145.8 Z" fill="#4a8fbd" opacity="0.3"/><path d="M140 608 L143.36 616.64 L152 620 L143.36 623.36 L140 632 L136.64 623.36 L128 620 L136.64 616.64 Z" fill="#4a8fbd" opacity="0.3"/><ellipse cx="400" cy="650" rx="250" ry="30" fill="#26343a" opacity="0.08"/><defs><radialGradient id="gcl" cx="0.42" cy="0.34" r="0.85"><stop offset="0%" stop-color="#ffffff"/><stop offset="100%" stop-color="#e6ebf5"/></radialGradient></defs><g fill="url(#gcl)"><circle cx="270" cy="480" r="118"/><circle cx="400" cy="405" r="148"/><circle cx="532" cy="480" r="112"/><rect x="200" y="480" width="395" height="112" rx="56"/></g><ellipse cx="300" cy="355" rx="46" ry="24" fill="#ffffff" opacity="0.5" transform="rotate(-28 300 355)"/><path d="M304.0 450 Q 338.0 420.0 372.0 450" stroke="#3a4a50" stroke-width="11.0" stroke-linecap="round" fill="none"/><path d="M428.0 450 Q 462.0 420.0 496.0 450" stroke="#3a4a50" stroke-width="11.0" stroke-linecap="round" fill="none"/><path d="M380.0 484.0 Q 400 502.0 420.0 484.0" stroke="#3a4a50" stroke-width="11.0" stroke-linecap="round" fill="none"/><ellipse cx="292.0" cy="476.0" rx="26.0" ry="16.0" fill="#f6b092" opacity="0.7"/><ellipse cx="508.0" cy="476.0" rx="26.0" ry="16.0" fill="#f6b092" opacity="0.7"/></svg>