<svg xmlns="http://www.w3.org/2000/svg" viewBox="0 0 800 800"><rect width="800" height="800" rx="48" fill="#e9f8f2"/><circle cx="140" cy="150" r="9" fill="#ffffff" opacity="0.5"/><circle cx="660" cy="640" r="9" fill="#ffffff" opacity="0.5"/><path d="M655 140 L659.2 150.8 L670 155 L659.2 159.2 L655 170 L650.8 159.2 L640 155 L650.8 150.8 Z" fill="#129488" opacity="0.3"/><path d="M145 608 L148.36 616.64 L157 620 L148.36 623.36 L145 632 L141.64 623.36 L133 620 L141.64 616.64 Z" fill="#129488" opacity="0.3"/><ellipse cx="400" cy="610" rx="150" ry="24" fill="#26343a" opacity="0.08"/><circle cx="400" cy="250" r="40" fill="none" stroke="#b98a4b" stroke-width="14"/><rect x="386" y="278" width="28" height="34" rx="9" fill="#b98a4b"/><defs><radialGradient id="gcs" cx="0.42" cy="0.34" r="0.85"><stop offset="0%" stop-color="#fff3e6"/><stop offset="100%" stop-color="#f0cda2"/></radialGradient></defs><path d="M276.0 494.8 Q 276.0 377.0 400 377.0 Q 524.0 377.0 524.0 494.8 Q 524.0 544.4 400 544.4 Q 276.0 544.4 276.0 494.8 Z" fill="url(#gcs)"/><ellipse cx="344.2" cy="420.4" rx="26.04" ry="13.64" fill="#ffffff" opacity="0.5" transform="rotate(-28 344.2 420.4)"/><path d="M347.2 473.1 Q 365.9 456.6 384.59999999999997 473.1" stroke="#3a4a50" stroke-width="6.050000000000001" stroke-linecap="round" fill="none"/><path d="M415.40000000000003 473.1 Q 434.1 456.6 452.8 473.1" stroke="#3a4a50" stroke-width="6.050000000000001" stroke-linecap="round" fill="none"/><path d="M389.0 491.8 Q 400 501.70000000000005 411.0 491.8" stroke="#3a4a50" stroke-width="6.050000000000001" stroke-linecap="round" fill="none"/><ellipse cx="340.6" cy="487.40000000000003" rx="14.3" ry="8.8" fill="#f6b092" opacity="0.7"/><ellipse cx="459.4" cy="487.40000000000003" rx="14.3" ry="8.8" fill="#f6b092" opacity="0.7"/></svg>