<svg xmlns="http://www.w3.org/2000/svg" viewBox="0 0 1200 800"><defs><linearGradient id="hbg" x1="0" y1="0" x2="0" y2="1"><stop offset="0%" stop-color="#e3f4f1"/><stop offset="100%" stop-color="#f7f0e3"/></linearGradient><radialGradient id="hg1" cx="0.42" cy="0.34" r="0.85"><stop offset="0%" stop-color="#eefcd9"/><stop offset="100%" stop-color="#b9e69a"/></radialGradient><radialGradient id="hg2" cx="0.42" cy="0.34" r="0.85"><stop offset="0%" stop-color="#fff8f0"/><stop offset="100%" stop-color="#f0cda2"/></radialGradient><radialGradient id="hg3" cx="0.42" cy="0.34" r="0.85"><stop offset="0%" stop-color="#ffffff"/><stop offset="100%" stop-color="#e8eef8"/></radialGradient></defs><rect width="1200" height="800" fill="url(#hbg)"/><ellipse cx="600" cy="810" rx="750" ry="180" fill="#9ed6cc" opacity="0.45"/><path d="M150 112 L155.04 124.96 L168 130 L155.04 135.04 L150 148 L144.96 135.04 L132 130 L144.96 124.96 Z" fill="#129488" opacity="0.3"/><path d="M1050 95 L1054.2 105.8 L1065 110 L1054.2 114.2 L1050 125 L1045.8 114.2 L1035 110 L1045.8 105.8 Z" fill="#129488" opacity="0.3"/><path d="M990 289 L993.08 296.92 L1001 300 L993.08 303.08 L990 311 L986.92 303.08 L979 300 L986.92 296.92 Z" fill="#129488" opacity="0.3"/><path d="M90 408 L93.36 416.64 L102 420 L93.36 423.36 L90 432 L86.64 423.36 L78 420 L86.64 416.64 Z" fill="#129488" opacity="0.3"/><path d="M1130 507 L1133.64 516.36 L1143 520 L1133.64 523.64 L1130 533 L1126.36 523.64 L1117 520 L1126.36 516.36 Z" fill="#129488" opacity="0.3"/><circle cx="300" cy="90" r="8" fill="#ffffff" opacity="0.8"/><circle cx="860" cy="160" r="7" fill="#ffffff" opacity="0.8"/><circle cx="1160" cy="240" r="6" fill="#ffffff" opacity="0.8"/><circle cx="60" cy="260" r="7" fill="#ffffff" opacity="0.8"/><g fill="url(#hg3)"><circle cx="230" cy="560" r="95"/><circle cx="330" cy="505" r="115"/><circle cx="430" cy="565" r="88"/><rect x="165" y="560" width="330" height="90" rx="45"/></g><ellipse cx="255" cy="470" rx="36" ry="19" fill="#ffffff" opacity="0.5" transform="rotate(-28 255 470)"/><path d="M258.0 545 Q 283.5 522.5 309.0 545" stroke="#3a4a50" stroke-width="8.25" stroke-linecap="round" fill="none"/><path d="M351.0 545 Q 376.5 522.5 402.0 545" stroke="#3a4a50" stroke-width="8.25" stroke-linecap="round" fill="none"/><path d="M315.0 570.5 Q 330 584.0 345.0 570.5" stroke="#3a4a50" stroke-width="8.25" stroke-linecap="round" fill="none"/><ellipse cx="249.0" cy="564.5" rx="19.5" ry="12.0" fill="#f6b092" opacity="0.7"/><ellipse cx="411.0" cy="564.5" rx="19.5" ry="12.0" fill="#f6b092" opacity="0.7"/><ellipse cx="600" cy="720" rx="185" ry="26" fill="#26343a" opacity="0.08"/><defs><radialGradient id="hgd" cx="0.42" cy="0.34" r="0.85"><stop offset="0%" stop-color="#eefcd9"/><stop offset="100%" stop-color="#b9e69a"/></radialGradient></defs><path d="M400.5 614.8625 Q 400.5 403.25 600 403.25 Q 799.5 403.25 799.5 614.8625 Q 799.5 682.265 600 682.265 Q 400.5 682.265 400.5 614.8625 Z" fill="url(#hgd)"/><path d="M531.6 437.45 Q 550.6 388.05 569.6 437.45" stroke="#b9e69a" stroke-width="9.5" stroke-linecap="round" fill="none" transform="rotate(-30 550.6 412.75)"/><path d="M581.0 426.05 Q 600.0 376.65000000000003 619.0 426.05" stroke="#b9e69a" stroke-width="9.5" stroke-linecap="round" fill="none" transform="rotate(0 600.0 401.35)"/><path d="M630.4 437.45 Q 649.4 388.05 668.4 437.45" stroke="#b9e69a" stroke-width="9.5" stroke-linecap="round" fill="none" transform="rotate(30 649.4 412.75)"/><ellipse cx="509.75" cy="478.49" rx="38.0" ry="20.9" fill="#ffffff" opacity="0.5" transform="rotate(-28 509.75 478.49)"/><path d="M508.8 569.5 Q 541.1 541.0 573.4 569.5" stroke="#5a6b4a" stroke-width="10.45" stroke-linecap="round" fill="none"/><path d="M626.6 569.5 Q 658.9 541.0 691.1999999999999 569.5" stroke="#5a6b4a" stroke-width="10.45" stroke-linecap="round" fill="none"/><path d="M581.0 601.8 Q 600 618.9 619.0 601.8" stroke="#5a6b4a" stroke-width="10.45" stroke-linecap="round" fill="none"/><ellipse cx="497.4" cy="594.2" rx="24.7" ry="15.2" fill="#c9e6a8" opacity="0.7"/><ellipse cx="702.6" cy="594.2" rx="24.7" ry="15.2" fill="#c9e6a8" opacity="0.7"/><ellipse cx="920" cy="705" rx="140" ry="22" fill="#26343a" opacity="0.08"/><circle cx="920" cy="560" r="150" fill="url(#hg2)"/><path d="M920 415 Q 975 365 1030 395 Q 975 430 920 415 Z" fill="#8fc97a"/><ellipse cx="855" cy="490" rx="34" ry="18" fill="#ffffff" opacity="0.5" transform="rotate(-28 855 490)"/><path d="M854.72 565 Q 877.84 544.6 900.96 565" stroke="#3a4a50" stroke-width="7.48" stroke-linecap="round" fill="none"/><path d="M939.04 565 Q 962.16 544.6 985.28 565" stroke="#3a4a50" stroke-width="7.48" stroke-linecap="round" fill="none"/><path d="M906.4 588.12 Q 920 600.36 933.6 588.12" stroke="#3a4a50" stroke-width="7.48" stroke-linecap="round" fill="none"/><ellipse cx="846.56" cy="582.68" rx="17.68" ry="10.88" fill="#f6b092" opacity="0.7"/><ellipse cx="993.44" cy="582.68" rx="17.68" ry="10.88" fill="#f6b092" opacity="0.7"/><ellipse cx="420" cy="728" rx="95" ry="16" fill="#26343a" opacity="0.08"/><defs><radialGradient id="hgb" cx="0.42" cy="0.34" r="0.85"><stop offset="0%" stop-color="#eaf4fd"/><stop offset="100%" stop-color="#a8d0ec"/></radialGradient></defs><path d="M336.0 681.8 Q 336.0 602.0 420 602.0 Q 504.0 602.0 504.0 681.8 Q 504.0 715.4 420 715.4 Q 336.0 715.4 336.0 681.8 Z" fill="url(#hgb)"/><ellipse cx="382.2" cy="631.4" rx="17.64" ry="9.24" fill="#ffffff" opacity="0.5" transform="rotate(-28 382.2 631.4)"/><path d="M381.59999999999997 667.1 Q 395.2 655.1 408.8 667.1" stroke="#3a4a50" stroke-width="4.4" stroke-linecap="round" fill="none"/><path d="M431.2 667.1 Q 444.8 655.1 458.40000000000003 667.1" stroke="#3a4a50" stroke-width="4.4" stroke-linecap="round" fill="none"/><path d="M412.0 680.7 Q 420 687.9 428.0 680.7" stroke="#3a4a50" stroke-width="4.4" stroke-linecap="round" fill="none"/><ellipse cx="376.8" cy="677.5" rx="10.4" ry="6.4" fill="#f6b092" opacity="0.7"/><ellipse cx="463.2" cy="677.5" rx="10.4" ry="6.4" fill="#f6b092" opacity="0.7"/></svg>