<svg xmlns="http://www.w3.org/2000/svg" viewBox="0 0 800 800"><rect width="800" height="800" rx="48" fill="#e9f8f2"/><circle cx="130" cy="150" r="9" fill="#ffffff" opacity="0.5"/><circle cx="670" cy="170" r="8" fill="#ffffff" opacity="0.5"/><circle cx="660" cy="650" r="9" fill="#ffffff" opacity="0.5"/><path d="M150 626 L153.92 636.08 L164 640 L153.92 643.92 L150 654 L146.08 643.92 L136 640 L146.08 636.08 Z" fill="#129488" opacity="0.3"/><ellipse cx="400" cy="628" rx="205" ry="30" fill="#26343a" opacity="0.08"/><defs><radialGradient id="g5b" cx="0.42" cy="0.34" r="0.85"><stop offset="0%" stop-color="#f6fded"/><stop offset="100%" stop-color="#cde9ae"/></radialGradient></defs><path d="M190.0 527.75 Q 190.0 305.0 400 305.0 Q 610.0 305.0 610.0 527.75 Q 610.0 598.7 400 598.7 Q 190.0 598.7 190.0 527.75 Z" fill="url(#g5b)"/><path d="M328.0 341.0 Q 348.0 289.0 368.0 341.0" stroke="#cde9ae" stroke-width="10.0" stroke-linecap="round" fill="none" transform="rotate(-30 348.0 315.0)"/><path d="M380.0 329.0 Q 400.0 277.0 420.0 329.0" stroke="#cde9ae" stroke-width="10.0" stroke-linecap="round" fill="none" transform="rotate(0 400.0 303.0)"/><path d="M432.0 341.0 Q 452.0 289.0 472.0 341.0" stroke="#cde9ae" stroke-width="10.0" stroke-linecap="round" fill="none" transform="rotate(30 452.0 315.0)"/><ellipse cx="305.0" cy="384.2" rx="40.0" ry="22.0" fill="#ffffff" opacity="0.5" transform="rotate(-28 305.0 384.2)"/><path d="M304.0 480.0 Q 338.0 450.0 372.0 480.0" stroke="#3a4a50" stroke-width="11.0" stroke-linecap="round" fill="none"/><path d="M428.0 480.0 Q 462.0 450.0 496.0 480.0" stroke="#3a4a50" stroke-width="11.0" stroke-linecap="round" fill="none"/><path d="M380.0 514.0 Q 400 532.0 420.0 514.0" stroke="#3a4a50" stroke-width="11.0" stroke-linecap="round" fill="none"/><ellipse cx="292.0" cy="506.0" rx="26.0" ry="16.0" fill="#f6b092" opacity="0.7"/><ellipse cx="508.0" cy="506.0" rx="26.0" ry="16.0" fill="#f6b092" opacity="0.7"/></svg>