<svg xmlns="http://www.w3.org/2000/svg" viewBox="0 0 800 800"><rect width="800" height="800" rx="48" fill="#e3f4f1"/><circle cx="140" cy="665" r="9" fill="#ffffff" opacity="0.5"/><circle cx="670" cy="640" r="8" fill="#ffffff" opacity="0.5"/><circle cx="668" cy="150" r="7" fill="#ffffff" opacity="0.5"/><path d="M140 136 L143.92 146.08 L154 150 L143.92 153.92 L140 164 L136.08 153.92 L126 150 L136.08 146.08 Z" fill="#129488" opacity="0.3"/><ellipse cx="400" cy="628" rx="205" ry="30" fill="#26343a" opacity="0.08"/><circle cx="255" cy="270" r="62" fill="#3f4a50"/><circle cx="545" cy="270" r="62" fill="#3f4a50"/><defs><radialGradient id="g9" cx="0.42" cy="0.34" r="0.85"><stop offset="0%" stop-color="#ffffff"/><stop offset="100%" stop-color="#e8ecea"/></radialGradient></defs><path d="M205 495 Q 205 280 400 280 Q 595 280 595 495 Q 595 595 400 595 Q 205 595 205 495 Z" fill="url(#g9)"/><ellipse cx="338" cy="425" rx="52" ry="60" fill="#3f4a50" transform="rotate(-14 338 425)"/><ellipse cx="462" cy="425" rx="52" ry="60" fill="#3f4a50" transform="rotate(14 462 425)"/><path d="M312 425 Q 338 402 364 425" stroke="#ffffff" stroke-width="10" stroke-linecap="round" fill="none"/><path d="M436 425 Q 462 402 488 425" stroke="#ffffff" stroke-width="10" stroke-linecap="round" fill="none"/><ellipse cx="400" cy="492" rx="16" ry="11" fill="#3f4a50"/><path d="M382 522 Q 400 536 418 522" stroke="#3f4a50" stroke-width="9" stroke-linecap="round" fill="none"/><ellipse cx="262" cy="488" rx="26" ry="16" fill="#f6b092" opacity="0.7"/><ellipse cx="538" cy="488" rx="26" ry="16" fill="#f6b092" opacity="0.7"/><ellipse cx="300" cy="355" rx="40" ry="22" fill="#ffffff" opacity="0.5" transform="rotate(-28 300 355)"/></svg>