<svg xmlns="http://www.w3.org/2000/svg" viewBox="0 0 800 800"><rect width="800" height="800" rx="48" fill="#e9f8f2"/><circle cx="130" cy="150" r="9" fill="#ffffff" opacity="0.5"/><circle cx="680" cy="620" r="9" fill="#ffffff" opacity="0.5"/><circle cx="670" cy="140" r="7" fill="#ffffff" opacity="0.5"/><path d="M150 606 L153.92 616.08 L164 620 L153.92 623.92 L150 634 L146.08 623.92 L136 620 L146.08 616.08 Z" fill="#129488" opacity="0.3"/><ellipse cx="400" cy="628" rx="205" ry="30" fill="#26343a" opacity="0.08"/><circle cx="400" cy="205" r="46" fill="none" stroke="#b98a4b" stroke-width="16"/><rect x="384" y="238" width="32" height="40" rx="10" fill="#b98a4b"/><defs><radialGradient id="g2" cx="0.42" cy="0.34" r="0.85"><stop offset="0%" stop-color="#fff8f0"/><stop offset="100%" stop-color="#f0cda2"/></radialGradient></defs><path d="M211.0 521.975 Q 211.0 321.5 400 321.5 Q 589.0 321.5 589.0 521.975 Q 589.0 585.83 400 585.83 Q 211.0 585.83 211.0 521.975 Z" fill="url(#g2)"/><path d="M335.2 353.9 Q 353.2 307.1 371.2 353.9" stroke="#f0cda2" stroke-width="9.0" stroke-linecap="round" fill="none" transform="rotate(-30 353.2 330.5)"/><path d="M382.0 343.09999999999997 Q 400.0 296.3 418.0 343.09999999999997" stroke="#f0cda2" stroke-width="9.0" stroke-linecap="round" fill="none" transform="rotate(0 400.0 319.7)"/><path d="M428.8 353.9 Q 446.8 307.1 464.8 353.9" stroke="#f0cda2" stroke-width="9.0" stroke-linecap="round" fill="none" transform="rotate(30 446.8 330.5)"/><ellipse cx="314.5" cy="392.78" rx="36.0" ry="19.8" fill="#ffffff" opacity="0.5" transform="rotate(-28 314.5 392.78)"/><path d="M313.59999999999997 479.0 Q 344.2 452.0 374.8 479.0" stroke="#3a4a50" stroke-width="9.9" stroke-linecap="round" fill="none"/><path d="M425.2 479.0 Q 455.8 452.0 486.40000000000003 479.0" stroke="#3a4a50" stroke-width="9.9" stroke-linecap="round" fill="none"/><path d="M382.0 509.6 Q 400 525.8 418.0 509.6" stroke="#3a4a50" stroke-width="9.9" stroke-linecap="round" fill="none"/><ellipse cx="302.8" cy="502.4" rx="23.400000000000002" ry="14.4" fill="#f6b092" opacity="0.7"/><ellipse cx="497.2" cy="502.4" rx="23.400000000000002" ry="14.4" fill="#f6b092" opacity="0.7"/></svg>