<svg xmlns="http://www.w3.org/2000/svg" viewBox="0 0 800 800"><rect width="800" height="800" rx="48" fill="#e7f2fb"/><circle cx="140" cy="160" r="10" fill="#ffffff" opacity="0.5"/><circle cx="660" cy="190" r="8" fill="#ffffff" opacity="0.5"/><circle cx="150" cy="660" r="9" fill="#ffffff" opacity="0.5"/><circle cx="655" cy="645" r="8" fill="#ffffff" opacity="0.5"/><path d="M660 104 L664.48 115.52 L676 120 L664.48 124.48 L660 136 L655.52 124.48 L644 120 L655.52 115.52 Z" fill="#4a8fbd" opacity="0.25"/><path d="M120 288 L123.36 296.64 L132 300 L123.36 303.36 L120 312 L116.64 303.36 L108 300 L116.64 296.64 Z" fill="#4a8fbd" opacity="0.25"/><ellipse cx="400" cy="645" rx="250" ry="30" fill="#26343a" opacity="0.08"/><defs><radialGradient id="g11" cx="0.42" cy="0.34" r="0.85"><stop offset="0%" stop-color="#ffffff"/><stop offset="100%" stop-color="#e8eef8"/></radialGradient></defs><g fill="url(#g11)"><circle cx="270" cy="470" r="120"/><circle cx="400" cy="400" r="150"/><circle cx="535" cy="470" r="115"/><circle cx="400" cy="500" r="130"/><rect x="200" y="470" width="400" height="115" rx="57"/></g><ellipse cx="300" cy="350" rx="46" ry="24" fill="#ffffff" opacity="0.5" transform="rotate(-28 300 350)"/><path d="M304.0 445 Q 338.0 415.0 372.0 445" stroke="#3a4a50" stroke-width="11.0" stroke-linecap="round" fill="none"/><path d="M428.0 445 Q 462.0 415.0 496.0 445" stroke="#3a4a50" stroke-width="11.0" stroke-linecap="round" fill="none"/><path d="M380.0 479.0 Q 400 497.0 420.0 479.0" stroke="#3a4a50" stroke-width="11.0" stroke-linecap="round" fill="none"/><ellipse cx="292.0" cy="471.0" rx="26.0" ry="16.0" fill="#f6b092" opacity="0.7"/><ellipse cx="508.0" cy="471.0" rx="26.0" ry="16.0" fill="#f6b092" opacity="0.7"/></svg>