<svg xmlns="http://www.w3.org/2000/svg" viewBox="0 0 800 800"><rect width="800" height="800" rx="48" fill="#22333a"/><path d="M150 132 L155.04 144.96 L168 150 L155.04 155.04 L150 168 L144.96 155.04 L132 150 L144.96 144.96 Z" fill="#f2ffd9" opacity="0.8"/><path d="M660 117 L663.64 126.36 L673 130 L663.64 133.64 L660 143 L656.36 133.64 L647 130 L656.36 126.36 Z" fill="#f2ffd9" opacity="0.8"/><path d="M130 608 L133.36 616.64 L142 620 L133.36 623.36 L130 632 L126.64 623.36 L118 620 L126.64 616.64 Z" fill="#f2ffd9" opacity="0.8"/><path d="M680 584 L684.48 595.52 L696 600 L684.48 604.48 L680 616 L675.52 604.48 L664 600 L675.52 595.52 Z" fill="#f2ffd9" opacity="0.8"/><path d="M620 291 L622.52 297.48 L629 300 L622.52 302.52 L620 309 L617.48 302.52 L611 300 L617.48 297.48 Z" fill="#f2ffd9" opacity="0.8"/><circle cx="240" cy="110" r="5" fill="#f2ffd9" opacity="0.7"/><circle cx="560" cy="680" r="5" fill="#f2ffd9" opacity="0.7"/><circle cx="90" cy="400" r="4" fill="#f2ffd9" opacity="0.7"/><circle cx="400" cy="440" r="300" fill="#d8f7c9" opacity="0.16"/><circle cx="400" cy="440" r="230" fill="#d8f7c9" opacity="0.18"/><ellipse cx="400" cy="640" rx="210" ry="28" fill="#26343a" opacity="0.08"/><defs><radialGradient id="g5" cx="0.42" cy="0.34" r="0.85"><stop offset="0%" stop-color="#eefcd9"/><stop offset="100%" stop-color="#b9e69a"/></radialGradient></defs><path d="M190.0 527.75 Q 190.0 305.0 400 305.0 Q 610.0 305.0 610.0 527.75 Q 610.0 598.7 400 598.7 Q 190.0 598.7 190.0 527.75 Z" fill="url(#g5)"/><path d="M328.0 341.0 Q 348.0 289.0 368.0 341.0" stroke="#b9e69a" stroke-width="10.0" stroke-linecap="round" fill="none" transform="rotate(-30 348.0 315.0)"/><path d="M380.0 329.0 Q 400.0 277.0 420.0 329.0" stroke="#b9e69a" stroke-width="10.0" stroke-linecap="round" fill="none" transform="rotate(0 400.0 303.0)"/><path d="M432.0 341.0 Q 452.0 289.0 472.0 341.0" stroke="#b9e69a" stroke-width="10.0" stroke-linecap="round" fill="none" transform="rotate(30 452.0 315.0)"/><ellipse cx="305.0" cy="384.2" rx="40.0" ry="22.0" fill="#ffffff" opacity="0.5" transform="rotate(-28 305.0 384.2)"/><path d="M304.0 480.0 Q 338.0 450.0 372.0 480.0" stroke="#5a6b4a" stroke-width="11.0" stroke-linecap="round" fill="none"/><path d="M428.0 480.0 Q 462.0 450.0 496.0 480.0" stroke="#5a6b4a" stroke-width="11.0" stroke-linecap="round" fill="none"/><path d="M380.0 514.0 Q 400 532.0 420.0 514.0" stroke="#5a6b4a" stroke-width="11.0" stroke-linecap="round" fill="none"/><ellipse cx="292.0" cy="506.0" rx="26.0" ry="16.0" fill="#c9e6a8" opacity="0.7"/><ellipse cx="508.0" cy="506.0" rx="26.0" ry="16.0" fill="#c9e6a8" opacity="0.7"/></svg>