<svg xmlns="http://www.w3.org/2000/svg" viewBox="0 0 800 800"><rect width="800" height="800" rx="48" fill="#e3f4f1"/><circle cx="140" cy="150" r="9" fill="#ffffff" opacity="0.5"/><circle cx="665" cy="190" r="8" fill="#ffffff" opacity="0.5"/><circle cx="150" cy="660" r="8" fill="#ffffff" opacity="0.5"/><path d="M660 606 L663.92 616.08 L674 620 L663.92 623.92 L660 634 L656.08 623.92 L646 620 L656.08 616.08 Z" fill="#129488" opacity="0.3"/><ellipse cx="400" cy="660" rx="170" ry="26" fill="#26343a" opacity="0.08"/><rect x="330" y="120" width="26" height="200" rx="13" fill="#9fb4ea" transform="rotate(12 343 220)"/><defs><radialGradient id="g4" cx="0.42" cy="0.34" r="0.85"><stop offset="0%" stop-color="#fdf1e3"/><stop offset="100%" stop-color="#f0cda2"/></radialGradient></defs><path d="M270 280 L530 280 L505 640 Q 400 665 295 640 Z" fill="url(#g4)"/><rect x="258" y="258" width="284" height="42" rx="21" fill="#6cc4b9"/><circle cx="330" cy="596" r="24" fill="#6b4b3e"/><circle cx="392" cy="610" r="24" fill="#6b4b3e"/><circle cx="455" cy="596" r="24" fill="#6b4b3e"/><circle cx="362" cy="555" r="24" fill="#6b4b3e"/><circle cx="430" cy="552" r="24" fill="#6b4b3e"/><ellipse cx="330" cy="360" rx="30" ry="52" fill="#ffffff" opacity="0.45" transform="rotate(8 330 360)"/><path d="M323.2 440 Q 350.4 416.0 377.59999999999997 440" stroke="#3a4a50" stroke-width="8.8" stroke-linecap="round" fill="none"/><path d="M422.40000000000003 440 Q 449.6 416.0 476.8 440" stroke="#3a4a50" stroke-width="8.8" stroke-linecap="round" fill="none"/><path d="M384.0 467.2 Q 400 481.6 416.0 467.2" stroke="#3a4a50" stroke-width="8.8" stroke-linecap="round" fill="none"/><ellipse cx="313.6" cy="460.8" rx="20.8" ry="12.8" fill="#f6b092" opacity="0.7"/><ellipse cx="486.4" cy="460.8" rx="20.8" ry="12.8" fill="#f6b092" opacity="0.7"/></svg>