<svg xmlns="http://www.w3.org/2000/svg" viewBox="0 0 800 800"><rect width="800" height="800" rx="48" fill="#f7f0e3"/><circle cx="135" cy="150" r="9" fill="#ffffff" opacity="0.5"/><circle cx="665" cy="175" r="8" fill="#ffffff" opacity="0.5"/><circle cx="150" cy="665" r="8" fill="#ffffff" opacity="0.5"/><path d="M665 626 L668.92 636.08 L679 640 L668.92 643.92 L665 654 L661.08 643.92 L651 640 L661.08 636.08 Z" fill="#f2a65a" opacity="0.4"/><ellipse cx="400" cy="650" rx="200" ry="28" fill="#26343a" opacity="0.08"/><defs><radialGradient id="g6" cx="0.42" cy="0.34" r="0.85"><stop offset="0%" stop-color="#e8b57e"/><stop offset="100%" stop-color="#d9a066"/></radialGradient></defs><path d="M220 320 Q 220 240 300 245 Q 330 205 400 210 Q 470 205 500 245 Q 580 240 580 320 L580 560 Q 580 620 520 620 L280 620 Q 220 620 220 560 Z" fill="url(#g6)"/><path d="M262 340 Q 262 285 320 288 Q 345 255 400 258 Q 455 255 480 288 Q 538 285 538 340 L538 545 Q 538 582 500 582 L300 582 Q 262 582 262 545 Z" fill="#ffedb8"/><ellipse cx="315" cy="330" rx="34" ry="18" fill="#ffffff" opacity="0.5" transform="rotate(-28 315 330)"/><path d="M318.40000000000003 430 Q 347.3 404.5 376.2 430" stroke="#3a4a50" stroke-width="9.35" stroke-linecap="round" fill="none"/><path d="M423.8 430 Q 452.7 404.5 481.59999999999997 430" stroke="#3a4a50" stroke-width="9.35" stroke-linecap="round" fill="none"/><path d="M383.0 458.9 Q 400 474.2 417.0 458.9" stroke="#3a4a50" stroke-width="9.35" stroke-linecap="round" fill="none"/><ellipse cx="308.2" cy="452.1" rx="22.099999999999998" ry="13.6" fill="#f6b092" opacity="0.7"/><ellipse cx="491.8" cy="452.1" rx="22.099999999999998" ry="13.6" fill="#f6b092" opacity="0.7"/></svg>