<svg xmlns="http://www.w3.org/2000/svg" viewBox="0 0 800 800"><rect width="800" height="800" rx="48" fill="#e9f8f2"/><circle cx="140" cy="150" r="9" fill="#ffffff" opacity="0.5"/><circle cx="665" cy="175" r="8" fill="#ffffff" opacity="0.5"/><path d="M660 626 L663.92 636.08 L674 640 L663.92 643.92 L660 654 L656.08 643.92 L646 640 L656.08 636.08 Z" fill="#3f9e77" opacity="0.3"/><ellipse cx="400" cy="660" rx="220" ry="28" fill="#26343a" opacity="0.08"/><defs><radialGradient id="g12" cx="0.42" cy="0.34" r="0.85"><stop offset="0%" stop-color="#ff9d8e"/><stop offset="100%" stop-color="#f2685c"/></radialGradient></defs><path d="M400 640 Q 180 520 180 360 Q 180 230 400 230 Q 620 230 620 360 Q 620 520 400 640 Z" fill="url(#g12)"/><path d="M400 232 Q 330 180 260 210 Q 330 250 400 232 Z" fill="#8fc97a"/><path d="M400 232 Q 470 180 540 210 Q 470 250 400 232 Z" fill="#8fc97a"/><path d="M400 236 Q 400 190 400 165" stroke="#6ba85e" stroke-width="12" stroke-linecap="round"/><ellipse cx="295" cy="380" rx="8" ry="12" fill="#fff2ef" opacity="0.85" transform="rotate(-15 295 380)"/><ellipse cx="505" cy="380" rx="8" ry="12" fill="#fff2ef" opacity="0.85" transform="rotate(15 505 380)"/><ellipse cx="260" cy="480" rx="8" ry="12" fill="#fff2ef" opacity="0.85" transform="rotate(-20 260 480)"/><ellipse cx="540" cy="480" rx="8" ry="12" fill="#fff2ef" opacity="0.85" transform="rotate(20 540 480)"/><ellipse cx="350" cy="560" rx="8" ry="12" fill="#fff2ef" opacity="0.85" transform="rotate(-8 350 560)"/><ellipse cx="450" cy="560" rx="8" ry="12" fill="#fff2ef" opacity="0.85" transform="rotate(8 450 560)"/><ellipse cx="300" cy="330" rx="44" ry="24" fill="#ffffff" opacity="0.5" transform="rotate(-28 300 330)"/><path d="M308.8 420 Q 341.1 391.5 373.40000000000003 420" stroke="#3a4a50" stroke-width="10.45" stroke-linecap="round" fill="none"/><path d="M426.59999999999997 420 Q 458.9 391.5 491.2 420" stroke="#3a4a50" stroke-width="10.45" stroke-linecap="round" fill="none"/><path d="M381.0 452.3 Q 400 469.4 419.0 452.3" stroke="#3a4a50" stroke-width="10.45" stroke-linecap="round" fill="none"/><ellipse cx="297.4" cy="444.7" rx="24.7" ry="15.2" fill="#f6b092" opacity="0.7"/><ellipse cx="502.6" cy="444.7" rx="24.7" ry="15.2" fill="#f6b092" opacity="0.7"/></svg>