<svg xmlns="http://www.w3.org/2000/svg" viewBox="0 0 800 800"><rect width="800" height="800" rx="48" fill="#e9f8f2"/><circle cx="130" cy="150" r="10" fill="#ffffff" opacity="0.5"/><circle cx="670" cy="175" r="8" fill="#ffffff" opacity="0.5"/><circle cx="145" cy="660" r="9" fill="#ffffff" opacity="0.5"/><path d="M665 610 L669.2 620.8 L680 625 L669.2 629.2 L665 640 L660.8 629.2 L650 625 L660.8 620.8 Z" fill="#f2a65a" opacity="0.4"/><ellipse cx="400" cy="665" rx="235" ry="30" fill="#26343a" opacity="0.08"/><defs><radialGradient id="g10" cx="0.42" cy="0.34" r="0.85"><stop offset="0%" stop-color="#ffe3cf"/><stop offset="100%" stop-color="#ffb997"/></radialGradient></defs><circle cx="400" cy="440" r="235" fill="url(#g10)"/><path d="M400 215 Q 392 300 400 340" stroke="#f09a72" stroke-width="10" stroke-linecap="round" fill="none"/><path d="M400 218 Q 470 150 540 190 Q 480 235 400 218 Z" fill="#8fc97a"/><ellipse cx="298" cy="330" rx="48" ry="26" fill="#ffffff" opacity="0.5" transform="rotate(-28 298 330)"/><path d="M304.0 445 Q 338.0 415.0 372.0 445" stroke="#3a4a50" stroke-width="11.0" stroke-linecap="round" fill="none"/><path d="M428.0 445 Q 462.0 415.0 496.0 445" stroke="#3a4a50" stroke-width="11.0" stroke-linecap="round" fill="none"/><path d="M380.0 479.0 Q 400 497.0 420.0 479.0" stroke="#3a4a50" stroke-width="11.0" stroke-linecap="round" fill="none"/><ellipse cx="292.0" cy="471.0" rx="26.0" ry="16.0" fill="#f6b092" opacity="0.7"/><ellipse cx="508.0" cy="471.0" rx="26.0" ry="16.0" fill="#f6b092" opacity="0.7"/></svg>