<svg xmlns="http://www.w3.org/2000/svg" viewBox="0 0 800 800"><rect width="800" height="800" rx="48" fill="#e9f8f2"/><circle cx="140" cy="160" r="9" fill="#ffffff" opacity="0.5"/><circle cx="150" cy="650" r="8" fill="#ffffff" opacity="0.5"/><ellipse cx="400" cy="628" rx="205" ry="30" fill="#26343a" opacity="0.08"/><defs><radialGradient id="g7" cx="0.42" cy="0.34" r="0.85"><stop offset="0%" stop-color="#fff6f0"/><stop offset="100%" stop-color="#f2d3ba"/></radialGradient></defs><path d="M235 330 L275 235 Q 285 215 305 232 L350 285 Z" fill="#f2d3ba"/><path d="M565 330 L525 235 Q 515 215 495 232 L450 285 Z" fill="#f2d3ba"/><path d="M255 300 L280 250 L315 292 Z" fill="#f2a65a"/><path d="M545 300 L520 250 L485 292 Z" fill="#f2a65a"/><path d="M200 500 Q 200 280 400 280 Q 600 280 600 500 Q 600 600 400 600 Q 200 600 200 500 Z" fill="url(#g7)"/><ellipse cx="305" cy="370" rx="40" ry="22" fill="#ffffff" opacity="0.5" transform="rotate(-28 305 370)"/><path d="M313.59999999999997 430 Q 344.2 403.0 374.8 430" stroke="#3a4a50" stroke-width="9.9" stroke-linecap="round" fill="none"/><path d="M425.2 430 Q 455.8 403.0 486.40000000000003 430" stroke="#3a4a50" stroke-width="9.9" stroke-linecap="round" fill="none"/><path d="M382.0 460.6 Q 400 476.8 418.0 460.6" stroke="#3a4a50" stroke-width="9.9" stroke-linecap="round" fill="none"/><ellipse cx="302.8" cy="453.4" rx="23.400000000000002" ry="14.4" fill="#f6b092" opacity="0.7"/><ellipse cx="497.2" cy="453.4" rx="23.400000000000002" ry="14.4" fill="#f6b092" opacity="0.7"/><path d="M195 455 L135 445 M198 485 L140 495" stroke="#d3b295" stroke-width="9" stroke-linecap="round"/><path d="M605 455 L665 445 M602 485 L660 495" stroke="#d3b295" stroke-width="9" stroke-linecap="round"/><text x="612" y="235" font-family="Georgia, serif" font-size="64" fill="#7cbfa9" transform="rotate(14 612 235)">z</text><text x="668" y="185" font-family="Georgia, serif" font-size="44" fill="#7cbfa9" transform="rotate(14 668 185)">z</text></svg>