<svg xmlns="http://www.w3.org/2000/svg" viewBox="0 0 800 800"><rect width="800" height="800" rx="48" fill="#f7f0e3"/><circle cx="135" cy="145" r="9" fill="#ffffff" opacity="0.5"/><circle cx="665" cy="170" r="8" fill="#ffffff" opacity="0.5"/><circle cx="140" cy="650" r="8" fill="#ffffff" opacity="0.5"/><path d="M662 600 L666.2 610.8 L677 615 L666.2 619.2 L662 630 L657.8 619.2 L647 615 L657.8 610.8 Z" fill="#129488" opacity="0.35"/><path d="M120 289 L123.08 296.92 L131 300 L123.08 303.08 L120 311 L116.92 303.08 L109 300 L116.92 296.92 Z" fill="#129488" opacity="0.35"/><ellipse cx="400" cy="668" rx="260" ry="28" fill="#26343a" opacity="0.08"/><defs><radialGradient id="g13a" cx="0.42" cy="0.34" r="0.85"><stop offset="0%" stop-color="#fff3e6"/><stop offset="100%" stop-color="#f0cda2"/></radialGradient></defs><path d="M155.0 450.0 Q 155.0 355.0 255 355.0 Q 355.0 355.0 355.0 450.0 Q 355.0 490.0 255 490.0 Q 155.0 490.0 155.0 450.0 Z" fill="url(#g13a)"/><ellipse cx="210.0" cy="390.0" rx="21.0" ry="11.0" fill="#ffffff" opacity="0.5" transform="rotate(-28 210.0 390.0)"/><path d="M210.83999999999997 432.5 Q 226.48 418.7 242.12 432.5" stroke="#3a4a50" stroke-width="5.0600000000000005" stroke-linecap="round" fill="none"/><path d="M267.88 432.5 Q 283.52 418.7 299.15999999999997 432.5" stroke="#3a4a50" stroke-width="5.0600000000000005" stroke-linecap="round" fill="none"/><path d="M245.8 448.14 Q 255 456.42 264.2 448.14" stroke="#3a4a50" stroke-width="5.0600000000000005" stroke-linecap="round" fill="none"/><ellipse cx="205.32" cy="444.46" rx="11.96" ry="7.36" fill="#f6b092" opacity="0.7"/><ellipse cx="304.68" cy="444.46" rx="11.96" ry="7.36" fill="#f6b092" opacity="0.7"/><defs><radialGradient id="g13b" cx="0.42" cy="0.34" r="0.85"><stop offset="0%" stop-color="#eefcd9"/><stop offset="100%" stop-color="#b9e69a"/></radialGradient></defs><path d="M298.8 415.03 Q 298.8 299.2 408 299.2 Q 517.2 299.2 517.2 415.03 Q 517.2 451.924 408 451.924 Q 298.8 451.924 298.8 415.03 Z" fill="url(#g13b)"/><path d="M370.56 317.91999999999996 Q 380.96 290.88 391.35999999999996 317.91999999999996" stroke="#b9e69a" stroke-width="5.2" stroke-linecap="round" fill="none" transform="rotate(-30 380.96 304.4)"/><path d="M397.6 311.68 Q 408.0 284.64000000000004 418.4 311.68" stroke="#b9e69a" stroke-width="5.2" stroke-linecap="round" fill="none" transform="rotate(0 408.0 298.16)"/><path d="M424.64000000000004 317.91999999999996 Q 435.04 290.88 445.44 317.91999999999996" stroke="#b9e69a" stroke-width="5.2" stroke-linecap="round" fill="none" transform="rotate(30 435.04 304.4)"/><ellipse cx="358.6" cy="340.384" rx="20.8" ry="11.440000000000001" fill="#ffffff" opacity="0.5" transform="rotate(-28 358.6 340.384)"/><path d="M358.08 390.2 Q 375.76 374.59999999999997 393.44 390.2" stroke="#5a6b4a" stroke-width="5.720000000000001" stroke-linecap="round" fill="none"/><path d="M422.56 390.2 Q 440.24 374.59999999999997 457.92 390.2" stroke="#5a6b4a" stroke-width="5.720000000000001" stroke-linecap="round" fill="none"/><path d="M397.6 407.88 Q 408 417.24 418.4 407.88" stroke="#5a6b4a" stroke-width="5.720000000000001" stroke-linecap="round" fill="none"/><ellipse cx="351.84" cy="403.71999999999997" rx="13.52" ry="8.32" fill="#c9e6a8" opacity="0.7"/><ellipse cx="464.16" cy="403.71999999999997" rx="13.52" ry="8.32" fill="#c9e6a8" opacity="0.7"/><defs><radialGradient id="g13c" cx="0.42" cy="0.34" r="0.85"><stop offset="0%" stop-color="#eaf4fd"/><stop offset="100%" stop-color="#a8d0ec"/></radialGradient></defs><path d="M455.0 450.0 Q 455.0 355.0 555 355.0 Q 655.0 355.0 655.0 450.0 Q 655.0 490.0 555 490.0 Q 455.0 490.0 455.0 450.0 Z" fill="url(#g13c)"/><ellipse cx="510.0" cy="390.0" rx="21.0" ry="11.0" fill="#ffffff" opacity="0.5" transform="rotate(-28 510.0 390.0)"/><path d="M510.84000000000003 432.5 Q 526.48 418.7 542.12 432.5" stroke="#3a4a50" stroke-width="5.0600000000000005" stroke-linecap="round" fill="none"/><path d="M567.88 432.5 Q 583.52 418.7 599.16 432.5" stroke="#3a4a50" stroke-width="5.0600000000000005" stroke-linecap="round" fill="none"/><path d="M545.8 448.14 Q 555 456.42 564.2 448.14" stroke="#3a4a50" stroke-width="5.0600000000000005" stroke-linecap="round" fill="none"/><ellipse cx="505.32" cy="444.46" rx="11.96" ry="7.36" fill="#f6b092" opacity="0.7"/><ellipse cx="604.68" cy="444.46" rx="11.96" ry="7.36" fill="#f6b092" opacity="0.7"/><path d="M195 480 L605 480 L580 655 Q 400 680 220 655 Z" fill="#79c7bd"/><path d="M195 480 L605 480 L598 528 Q 400 552 202 528 Z" fill="#4da99e"/><path d="M348 545 Q 400 580 452 545" stroke="#ffffff" stroke-width="11" stroke-linecap="round" fill="none"/><circle cx="330" cy="551" r="8" fill="#ffffff"/><circle cx="470" cy="551" r="8" fill="#ffffff"/></svg>