<svg xmlns="http://www.w3.org/2000/svg" viewBox="0 0 800 800"><rect width="800" height="800" rx="48" fill="#e7f2fb"/><circle cx="140" cy="160" r="9" fill="#ffffff" opacity="0.5"/><circle cx="660" cy="180" r="7" fill="#ffffff" opacity="0.5"/><circle cx="680" cy="640" r="9" fill="#ffffff" opacity="0.5"/><path d="M160 627 L163.64 636.36 L173 640 L163.64 643.64 L160 653 L156.36 643.64 L147 640 L156.36 636.36 Z" fill="#4a8fbd" opacity="0.3"/><ellipse cx="400" cy="628" rx="205" ry="30" fill="#26343a" opacity="0.08"/><defs><radialGradient id="g3" cx="0.42" cy="0.34" r="0.85"><stop offset="0%" stop-color="#fff6cf"/><stop offset="100%" stop-color="#ffd970"/></radialGradient></defs><path d="M200 500 Q 200 300 400 300 Q 600 300 600 500 Q 600 590 400 590 Q 200 590 200 500 Z" fill="url(#g3)"/><path d="M330 300 Q 400 225 470 300 Q 445 265 400 262 Q 355 265 330 300 Z" fill="#ffd970"/><path d="M395 218 Q 400 195 415 205 Q 407 215 405 228 Z" fill="#f5b73f"/><ellipse cx="400" cy="472" rx="46" ry="22" fill="#f59e42"/><ellipse cx="310" cy="372" rx="40" ry="22" fill="#ffffff" opacity="0.5" transform="rotate(-28 310 372)"/><path d="M318.40000000000003 400 Q 347.3 374.5 376.2 400" stroke="#3a4a50" stroke-width="9.35" stroke-linecap="round" fill="none"/><path d="M423.8 400 Q 452.7 374.5 481.59999999999997 400" stroke="#3a4a50" stroke-width="9.35" stroke-linecap="round" fill="none"/><path d="M383.0 428.9 Q 400 444.2 417.0 428.9" stroke="#3a4a50" stroke-width="9.35" stroke-linecap="round" fill="none"/><ellipse cx="308.2" cy="422.1" rx="22.099999999999998" ry="13.6" fill="#f6b092" opacity="0.7"/><ellipse cx="491.8" cy="422.1" rx="22.099999999999998" ry="13.6" fill="#f6b092" opacity="0.7"/><path d="M255 470 Q 225 500 255 530" stroke="#f0c04d" stroke-width="12" stroke-linecap="round" fill="none"/><path d="M545 470 Q 575 500 545 530" stroke="#f0c04d" stroke-width="12" stroke-linecap="round" fill="none"/></svg>