<svg xmlns="http://www.w3.org/2000/svg" viewBox="0 0 800 800"><rect width="800" height="800" rx="48" fill="#e7f2fb"/><circle cx="135" cy="150" r="9" fill="#ffffff" opacity="0.5"/><circle cx="665" cy="175" r="8" fill="#ffffff" opacity="0.5"/><circle cx="145" cy="655" r="8" fill="#ffffff" opacity="0.5"/><path d="M660 605 L664.2 615.8 L675 620 L664.2 624.2 L660 635 L655.8 624.2 L645 620 L655.8 615.8 Z" fill="#8a9be0" opacity="0.4"/><ellipse cx="400" cy="668" rx="270" ry="28" fill="#26343a" opacity="0.08"/><defs><radialGradient id="g14a" cx="0.42" cy="0.34" r="0.85"><stop offset="0%" stop-color="#f0fbf4"/><stop offset="100%" stop-color="#b0e2ca"/></radialGradient></defs><path d="M131.0 461.8 Q 131.0 382.0 215 382.0 Q 299.0 382.0 299.0 461.8 Q 299.0 495.4 215 495.4 Q 131.0 495.4 131.0 461.8 Z" fill="url(#g14a)"/><ellipse cx="177.2" cy="411.4" rx="17.64" ry="9.24" fill="#ffffff" opacity="0.5" transform="rotate(-28 177.2 411.4)"/><path d="M176.6 447.1 Q 190.2 435.1 203.79999999999998 447.1" stroke="#3a4a50" stroke-width="4.4" stroke-linecap="round" fill="none"/><path d="M226.20000000000002 447.1 Q 239.8 435.1 253.4 447.1" stroke="#3a4a50" stroke-width="4.4" stroke-linecap="round" fill="none"/><path d="M207.0 460.70000000000005 Q 215 467.90000000000003 223.0 460.70000000000005" stroke="#3a4a50" stroke-width="4.4" stroke-linecap="round" fill="none"/><ellipse cx="171.8" cy="457.5" rx="10.4" ry="6.4" fill="#f6b092" opacity="0.7"/><ellipse cx="258.2" cy="457.5" rx="10.4" ry="6.4" fill="#f6b092" opacity="0.7"/><defs><radialGradient id="g14b" cx="0.42" cy="0.34" r="0.85"><stop offset="0%" stop-color="#fff8f0"/><stop offset="100%" stop-color="#f0cda2"/></radialGradient></defs><path d="M248.39999999999998 426.565 Q 248.39999999999998 324.1 345 324.1 Q 441.6 324.1 441.6 426.565 Q 441.6 459.202 345 459.202 Q 248.39999999999998 459.202 248.39999999999998 426.565 Z" fill="url(#g14b)"/><path d="M311.88 340.66 Q 321.08 316.74000000000007 330.28 340.66" stroke="#f0cda2" stroke-width="4.6000000000000005" stroke-linecap="round" fill="none" transform="rotate(-30 321.08 328.70000000000005)"/><path d="M335.8 335.14000000000004 Q 345.0 311.2200000000001 354.2 335.14000000000004" stroke="#f0cda2" stroke-width="4.6000000000000005" stroke-linecap="round" fill="none" transform="rotate(0 345.0 323.18000000000006)"/><path d="M359.72 340.66 Q 368.92 316.74000000000007 378.12 340.66" stroke="#f0cda2" stroke-width="4.6000000000000005" stroke-linecap="round" fill="none" transform="rotate(30 368.92 328.70000000000005)"/><ellipse cx="301.3" cy="360.532" rx="18.400000000000002" ry="10.120000000000001" fill="#ffffff" opacity="0.5" transform="rotate(-28 301.3 360.532)"/><path d="M300.84000000000003 404.6 Q 316.48 390.8 332.12 404.6" stroke="#3a4a50" stroke-width="5.0600000000000005" stroke-linecap="round" fill="none"/><path d="M357.88 404.6 Q 373.52 390.8 389.15999999999997 404.6" stroke="#3a4a50" stroke-width="5.0600000000000005" stroke-linecap="round" fill="none"/><path d="M335.8 420.24 Q 345 428.52000000000004 354.2 420.24" stroke="#3a4a50" stroke-width="5.0600000000000005" stroke-linecap="round" fill="none"/><ellipse cx="295.32" cy="416.56" rx="11.96" ry="7.36" fill="#f6b092" opacity="0.7"/><ellipse cx="394.68" cy="416.56" rx="11.96" ry="7.36" fill="#f6b092" opacity="0.7"/><defs><radialGradient id="g14c" cx="0.42" cy="0.34" r="0.85"><stop offset="0%" stop-color="#fff6cf"/><stop offset="100%" stop-color="#f5d97a"/></radialGradient></defs><path d="M388.0 423.4 Q 388.0 336.0 480 336.0 Q 572.0 336.0 572.0 423.4 Q 572.0 460.2 480 460.2 Q 388.0 460.2 388.0 423.4 Z" fill="url(#g14c)"/><ellipse cx="438.6" cy="368.2" rx="19.32" ry="10.120000000000001" fill="#ffffff" opacity="0.5" transform="rotate(-28 438.6 368.2)"/><path d="M439.68 407.3 Q 453.96 394.7 468.23999999999995 407.3" stroke="#3a4a50" stroke-width="4.62" stroke-linecap="round" fill="none"/><path d="M491.76000000000005 407.3 Q 506.04 394.7 520.32 407.3" stroke="#3a4a50" stroke-width="4.62" stroke-linecap="round" fill="none"/><path d="M471.6 421.58 Q 480 429.14 488.4 421.58" stroke="#3a4a50" stroke-width="4.62" stroke-linecap="round" fill="none"/><ellipse cx="434.64" cy="418.22" rx="10.92" ry="6.72" fill="#f6b092" opacity="0.7"/><ellipse cx="525.36" cy="418.22" rx="10.92" ry="6.72" fill="#f6b092" opacity="0.7"/><defs><radialGradient id="g14d" cx="0.42" cy="0.34" r="0.85"><stop offset="0%" stop-color="#fde9df"/><stop offset="100%" stop-color="#f6b092"/></radialGradient></defs><path d="M506.0 466.8 Q 506.0 387.0 590 387.0 Q 674.0 387.0 674.0 466.8 Q 674.0 500.4 590 500.4 Q 506.0 500.4 506.0 466.8 Z" fill="url(#g14d)"/><ellipse cx="552.2" cy="416.4" rx="17.64" ry="9.24" fill="#ffffff" opacity="0.5" transform="rotate(-28 552.2 416.4)"/><path d="M551.6 452.1 Q 565.2 440.1 578.8000000000001 452.1" stroke="#3a4a50" stroke-width="4.4" stroke-linecap="round" fill="none"/><path d="M601.1999999999999 452.1 Q 614.8 440.1 628.4 452.1" stroke="#3a4a50" stroke-width="4.4" stroke-linecap="round" fill="none"/><path d="M582.0 465.70000000000005 Q 590 472.90000000000003 598.0 465.70000000000005" stroke="#3a4a50" stroke-width="4.4" stroke-linecap="round" fill="none"/><ellipse cx="546.8" cy="462.5" rx="10.4" ry="6.4" fill="#f6b092" opacity="0.7"/><ellipse cx="633.2" cy="462.5" rx="10.4" ry="6.4" fill="#f6b092" opacity="0.7"/><path d="M180 490 L620 490 L595 660 Q 400 685 205 660 Z" fill="#9fb4ea"/><path d="M180 490 L620 490 L613 538 Q 400 562 187 538 Z" fill="#8098e0"/><path d="M348 552 Q 400 586 452 552" stroke="#ffffff" stroke-width="11" stroke-linecap="round" fill="none"/><circle cx="330" cy="558" r="8" fill="#ffffff"/><circle cx="470" cy="558" r="8" fill="#ffffff"/></svg>