<svg xmlns="http://www.w3.org/2000/svg" viewBox="0 0 800 800"><rect width="800" height="800" rx="48" fill="#eef0fa"/><circle cx="140" cy="150" r="9" fill="#ffffff" opacity="0.5"/><circle cx="665" cy="640" r="9" fill="#ffffff" opacity="0.5"/><circle cx="665" cy="160" r="7" fill="#ffffff" opacity="0.5"/><path d="M150 626 L153.92 636.08 L164 640 L153.92 643.92 L150 654 L146.08 643.92 L136 640 L146.08 636.08 Z" fill="#8a9be0" opacity="0.35"/><ellipse cx="400" cy="628" rx="205" ry="30" fill="#26343a" opacity="0.08"/><ellipse cx="225" cy="315" rx="16" ry="44" fill="#e88ba9" transform="rotate(-38 225 315)"/><ellipse cx="200" cy="385" rx="16" ry="44" fill="#e88ba9" transform="rotate(-68 200 385)"/><ellipse cx="575" cy="315" rx="16" ry="44" fill="#e88ba9" transform="rotate(38 575 315)"/><ellipse cx="600" cy="385" rx="16" ry="44" fill="#e88ba9" transform="rotate(68 600 385)"/><defs><radialGradient id="g8" cx="0.42" cy="0.34" r="0.85"><stop offset="0%" stop-color="#fdeaf0"/><stop offset="100%" stop-color="#f4b9cb"/></radialGradient></defs><path d="M205 495 Q 205 285 400 285 Q 595 285 595 495 Q 595 595 400 595 Q 205 595 205 495 Z" fill="url(#g8)"/><ellipse cx="308" cy="368" rx="40" ry="22" fill="#ffffff" opacity="0.5" transform="rotate(-28 308 368)"/><circle cx="344.2" cy="425" r="11.700000000000001" fill="#3a4a50"/><circle cx="348.7" cy="420.5" r="4.05" fill="#ffffff"/><circle cx="455.8" cy="425" r="11.700000000000001" fill="#3a4a50"/><circle cx="460.3" cy="420.5" r="4.05" fill="#ffffff"/><path d="M382.0 455.6 Q 400 471.8 418.0 455.6" stroke="#3a4a50" stroke-width="9.9" stroke-linecap="round" fill="none"/><ellipse cx="302.8" cy="448.4" rx="23.400000000000002" ry="14.4" fill="#f6b092" opacity="0.7"/><ellipse cx="497.2" cy="448.4" rx="23.400000000000002" ry="14.4" fill="#f6b092" opacity="0.7"/></svg>