<svg xmlns="http://www.w3.org/2000/svg" viewBox="0 0 800 800"><rect width="800" height="800" rx="48" fill="#f7f0e3"/><circle cx="120" cy="130" r="10" fill="#ffffff" opacity="0.5"/><circle cx="690" cy="170" r="8" fill="#ffffff" opacity="0.5"/><circle cx="150" cy="690" r="8" fill="#ffffff" opacity="0.5"/><circle cx="660" cy="660" r="10" fill="#ffffff" opacity="0.5"/><path d="M660 94 L664.48 105.52 L676 110 L664.48 114.48 L660 126 L655.52 114.48 L644 110 L655.52 105.52 Z" fill="#129488" opacity="0.3"/><path d="M120 247 L123.64 256.36 L133 260 L123.64 263.64 L120 273 L116.36 263.64 L107 260 L116.36 256.36 Z" fill="#129488" opacity="0.3"/><ellipse cx="400" cy="655" rx="250" ry="28" fill="#26343a" opacity="0.08"/><defs><radialGradient id="g1a" cx="0.42" cy="0.34" r="0.85"><stop offset="0%" stop-color="#fff3e6"/><stop offset="100%" stop-color="#f0cda2"/></radialGradient></defs><path d="M119.99999999999999 542.0 Q 119.99999999999999 437.5 230 437.5 Q 340.0 437.5 340.0 542.0 Q 340.0 586.0 230 586.0 Q 119.99999999999999 586.0 119.99999999999999 542.0 Z" fill="url(#g1a)"/><ellipse cx="180.5" cy="476.0" rx="23.1" ry="12.100000000000001" fill="#ffffff" opacity="0.5" transform="rotate(-28 180.5 476.0)"/><path d="M182.0 522.75 Q 199.0 507.75 216.0 522.75" stroke="#3a4a50" stroke-width="5.5" stroke-linecap="round" fill="none"/><path d="M244.0 522.75 Q 261.0 507.75 278.0 522.75" stroke="#3a4a50" stroke-width="5.5" stroke-linecap="round" fill="none"/><path d="M220.0 539.75 Q 230 548.75 240.0 539.75" stroke="#3a4a50" stroke-width="5.5" stroke-linecap="round" fill="none"/><ellipse cx="176.0" cy="535.75" rx="13.0" ry="8.0" fill="#f6b092" opacity="0.7"/><ellipse cx="284.0" cy="535.75" rx="13.0" ry="8.0" fill="#f6b092" opacity="0.7"/><defs><radialGradient id="g1b" cx="0.42" cy="0.34" r="0.85"><stop offset="0%" stop-color="#eaf4fd"/><stop offset="100%" stop-color="#a8d0ec"/></radialGradient></defs><path d="M450.0 542.0 Q 450.0 437.5 560 437.5 Q 670.0 437.5 670.0 542.0 Q 670.0 586.0 560 586.0 Q 450.0 586.0 450.0 542.0 Z" fill="url(#g1b)"/><ellipse cx="510.5" cy="476.0" rx="23.1" ry="12.100000000000001" fill="#ffffff" opacity="0.5" transform="rotate(-28 510.5 476.0)"/><path d="M512.0 522.75 Q 529.0 507.75 546.0 522.75" stroke="#3a4a50" stroke-width="5.5" stroke-linecap="round" fill="none"/><path d="M574.0 522.75 Q 591.0 507.75 608.0 522.75" stroke="#3a4a50" stroke-width="5.5" stroke-linecap="round" fill="none"/><path d="M550.0 539.75 Q 560 548.75 570.0 539.75" stroke="#3a4a50" stroke-width="5.5" stroke-linecap="round" fill="none"/><ellipse cx="506.0" cy="535.75" rx="13.0" ry="8.0" fill="#f6b092" opacity="0.7"/><ellipse cx="614.0" cy="535.75" rx="13.0" ry="8.0" fill="#f6b092" opacity="0.7"/><defs><radialGradient id="g1c" cx="0.42" cy="0.34" r="0.85"><stop offset="0%" stop-color="#f0fbf4"/><stop offset="100%" stop-color="#b0e2ca"/></radialGradient></defs><path d="M274.0 459.8 Q 274.0 342.0 398 342.0 Q 522.0 342.0 522.0 459.8 Q 522.0 509.4 398 509.4 Q 274.0 509.4 274.0 459.8 Z" fill="url(#g1c)"/><ellipse cx="342.2" cy="385.4" rx="26.04" ry="13.64" fill="#ffffff" opacity="0.5" transform="rotate(-28 342.2 385.4)"/><path d="M345.2 438.1 Q 363.9 421.6 382.59999999999997 438.1" stroke="#3a4a50" stroke-width="6.050000000000001" stroke-linecap="round" fill="none"/><path d="M413.40000000000003 438.1 Q 432.1 421.6 450.8 438.1" stroke="#3a4a50" stroke-width="6.050000000000001" stroke-linecap="round" fill="none"/><path d="M387.0 456.8 Q 398 466.70000000000005 409.0 456.8" stroke="#3a4a50" stroke-width="6.050000000000001" stroke-linecap="round" fill="none"/><ellipse cx="338.6" cy="452.40000000000003" rx="14.3" ry="8.8" fill="#f6b092" opacity="0.7"/><ellipse cx="457.4" cy="452.40000000000003" rx="14.3" ry="8.8" fill="#f6b092" opacity="0.7"/></svg>